<svg width="313" height="180" viewBox="0 0 313 180" fill="none" xmlns="http://www.w3.org/2000/svg">
<path d="M179.691 151.084C177.862 151.402 176.383 150.929 175.254 149.664C174.129 148.43 173.397 146.836 173.057 144.881C172.317 140.625 172.345 135.748 173.142 130.25C173.934 124.721 175.49 119.009 177.81 113.116C177.092 113.469 176.214 114.206 175.175 115.329C174.136 116.452 173.006 117.801 171.787 119.378C170.567 120.954 169.348 122.628 168.129 124.399C166.937 126.133 165.802 127.825 164.725 129.474C163.679 131.117 162.782 132.589 162.034 133.888C161.311 135.151 160.826 136.096 160.578 136.724C160.464 137.003 160.234 137.173 159.887 137.234C159.477 137.305 159.016 137.174 158.504 136.841C158.022 136.503 157.738 136.081 157.65 135.577C157.617 135.388 157.771 134.874 158.113 134.035C158.448 133.164 158.849 132.104 159.313 130.854C159.804 129.567 160.239 128.24 160.618 126.875C160.736 126.432 160.903 125.802 161.118 124.985C161.333 124.169 161.537 123.288 161.73 122.345C161.95 121.365 162.111 120.428 162.215 119.533C162.314 118.606 162.308 117.827 162.199 117.197C162.111 116.692 161.948 116.315 161.709 116.064C161.465 115.782 161.123 115.679 160.681 115.756C160.082 115.86 159.299 116.305 158.331 117.09C156.992 118.168 155.637 119.622 154.267 121.452C152.891 123.25 151.556 125.285 150.262 127.556C148.994 129.791 147.827 132.138 146.761 134.597C145.689 137.025 144.794 139.438 144.074 141.837C143.349 144.204 142.857 146.417 142.599 148.476C142.479 148.724 142.281 148.986 142.004 149.261C141.728 149.537 141.431 149.702 141.116 149.757C140.896 149.795 140.674 149.736 140.452 149.58C140.23 149.424 140.078 149.109 139.996 148.636C139.952 148.384 139.976 148.055 140.067 147.649C140.159 147.244 140.24 146.775 140.31 146.243C140.37 145.843 140.619 144.939 141.056 143.531C141.493 142.123 142.052 140.386 142.731 138.319C143.406 136.22 144.131 133.95 144.908 131.509C145.711 129.03 146.48 126.542 147.215 124.043C147.728 122.329 148.111 120.606 148.361 118.874C148.607 117.11 148.611 115.55 148.375 114.194C148.134 112.807 147.514 111.762 146.514 111.059C145.541 110.319 143.998 110.132 141.886 110.5C138.954 111.01 135.935 111.86 132.829 113.05C129.749 114.203 126.697 115.611 123.674 117.274C120.676 118.9 117.79 120.701 115.016 122.678C112.273 124.65 109.755 126.696 107.46 128.816C105.166 130.937 103.198 133.066 101.556 135.203C99.9083 137.309 98.6865 139.34 97.8902 141.298C97.12 143.218 96.8748 144.982 97.1546 146.59C97.4014 148.009 97.9313 148.907 98.7442 149.285C99.5516 149.632 100.444 149.72 101.421 149.55C102.115 149.43 102.81 149.228 103.508 148.944C104.237 148.654 104.89 148.395 105.468 148.164C105.525 148.122 105.633 148.087 105.79 148.059C106.043 148.016 106.256 148.027 106.43 148.094C106.635 148.156 106.749 148.25 106.771 148.376C106.788 148.471 106.694 148.584 106.489 148.717C105.803 149.064 105.047 149.39 104.224 149.696C103.431 149.996 102.625 150.218 101.806 150.361C100.702 150.553 99.6346 150.576 98.6024 150.431C97.5702 150.285 96.6915 149.902 95.9664 149.282C95.2727 148.655 94.819 147.727 94.605 146.498C94.3253 144.89 94.615 143.102 95.4743 141.133C96.3281 139.133 97.6233 137.057 99.3598 134.903C101.128 132.744 103.235 130.575 105.682 128.395C108.128 126.215 110.802 124.126 113.702 122.127C116.628 120.092 119.682 118.228 122.864 116.538C126.076 114.842 129.302 113.404 132.539 112.224C135.771 111.012 138.916 110.14 141.974 109.607C144.875 109.103 146.996 109.253 148.338 110.059C149.706 110.828 150.535 112.048 150.826 113.719C151.057 115.043 151.015 116.577 150.701 118.32C150.413 120.027 149.966 121.843 149.359 123.767C148.84 125.449 148.34 126.965 147.86 128.315C147.407 129.629 146.984 130.839 146.592 131.947C147.667 129.908 148.825 127.888 150.069 125.885C151.306 123.851 152.59 121.987 153.919 120.294C155.275 118.564 156.635 117.142 158 116.027C159.397 114.907 160.741 114.235 162.034 114.01C162.948 113.851 163.62 113.978 164.049 114.39C164.478 114.803 164.758 115.387 164.89 116.144C165.049 117.058 165.028 118.15 164.827 119.419C164.651 120.652 164.381 121.9 164.017 123.166C163.647 124.399 163.299 125.483 162.975 126.416C162.562 127.592 162.173 128.716 161.807 129.786C161.473 130.851 161.104 131.906 160.701 132.951C161.369 132.12 162.22 130.949 163.257 129.437C164.293 127.925 165.462 126.243 166.764 124.393C168.06 122.511 169.42 120.618 170.843 118.714C172.26 116.778 173.686 114.987 175.121 113.341C176.582 111.657 177.969 110.295 179.282 109.255C179.449 109.096 179.689 109.07 180 109.179C180.311 109.287 180.602 109.464 180.872 109.709C181.142 109.954 181.299 110.203 181.342 110.455C181.403 110.802 181.382 111.244 181.281 111.782C181.206 112.282 180.988 112.807 180.629 113.357C179.397 115.422 178.343 117.766 177.468 120.387C176.623 123.002 175.975 125.713 175.521 128.521C175.099 131.323 174.855 134.028 174.79 136.638C174.756 139.243 174.914 141.554 175.265 143.571C175.633 145.684 176.21 147.321 176.997 148.483C177.789 149.677 178.795 150.136 180.013 149.859C180.728 149.669 181.493 149.309 182.31 148.777C183.132 148.276 183.923 147.684 184.68 147C185.444 146.348 186.1 145.73 186.648 145.147C186.674 145.11 186.703 145.089 186.734 145.084C186.797 145.073 186.843 145.146 186.87 145.304C186.929 145.456 186.935 145.585 186.889 145.69C186.79 145.87 186.54 146.206 186.138 146.698C185.742 147.221 185.223 147.783 184.58 148.382C183.943 149.012 183.213 149.578 182.39 150.078C181.568 150.579 180.668 150.914 179.691 151.084ZM201.089 138.006C199.639 138.259 198.591 138.116 197.945 137.579C197.294 137.01 196.889 136.269 196.73 135.354C196.615 134.692 196.604 133.979 196.699 133.216C196.793 132.452 196.912 131.733 197.054 131.059C196.695 131.609 196.206 132.343 195.587 133.263C194.967 134.183 194.272 135.132 193.5 136.111C192.723 137.058 191.895 137.901 191.016 138.638C190.164 139.339 189.328 139.76 188.508 139.903C188.098 139.974 187.688 139.948 187.276 139.825C186.865 139.702 186.482 139.46 186.127 139.099C185.698 138.687 185.429 138.165 185.319 137.535C185.198 136.841 185.267 136.115 185.524 135.355C185.813 134.59 186.155 133.849 186.55 133.13C186.971 132.375 187.321 131.681 187.601 131.047C188.119 129.918 188.555 128.786 188.91 127.653C189.296 126.514 189.429 125.597 189.309 124.904C189.226 124.431 189.024 124.109 188.702 123.937C188.343 123.74 188.139 123.5 188.089 123.216C188.067 123.09 188.119 123.016 188.246 122.994C188.403 122.966 188.606 123.012 188.854 123.131C189.097 123.219 189.363 123.351 189.654 123.528C189.945 123.705 190.225 123.916 190.495 124.161C190.723 124.349 190.956 124.568 191.194 124.819C191.433 125.07 191.585 125.385 191.651 125.763C191.733 126.236 191.65 126.786 191.402 127.414C191.159 128.073 190.833 128.812 190.423 129.631C190.045 130.443 189.635 131.262 189.194 132.086C189.002 132.476 188.704 133.097 188.3 133.947C187.896 134.796 187.544 135.67 187.245 136.566C186.941 137.431 186.836 138.131 186.929 138.667C187.028 139.235 187.376 139.467 187.975 139.362C188.48 139.275 189.03 138.984 189.626 138.49C190.254 137.991 190.826 137.453 191.343 136.876C191.891 136.294 192.285 135.852 192.525 135.55C193.386 134.523 194.286 133.441 195.225 132.303C196.158 131.134 197.052 130.02 197.908 128.962C198.049 128.84 198.214 128.762 198.403 128.729C198.781 128.664 199.1 128.722 199.359 128.904C199.47 128.982 199.539 129.1 199.567 129.258C199.633 129.636 199.55 130.186 199.318 130.909C199.087 131.631 198.848 132.404 198.601 133.226C198.386 134.043 198.288 134.791 198.309 135.469C198.299 135.601 198.303 135.714 198.319 135.809C198.336 135.903 198.352 135.998 198.369 136.092C198.473 136.691 198.702 137.074 199.056 137.24C199.441 137.4 199.886 137.436 200.39 137.348C201.021 137.239 201.65 137.032 202.279 136.727C202.935 136.386 203.453 136.101 203.836 135.872C205.397 134.951 206.917 133.793 208.396 132.399C209.875 131.005 211.193 129.622 212.352 128.251C212.649 127.907 212.92 127.6 213.166 127.33C213.437 127.023 213.703 126.684 213.963 126.314C214.146 126.055 214.268 125.92 214.331 125.909C214.363 125.904 214.384 125.932 214.395 125.996C214.406 126.059 214.378 126.177 214.311 126.351C214.275 126.52 214.237 126.673 214.196 126.81C213.994 127.332 213.563 128.024 212.901 128.887C212.27 129.743 211.488 130.659 210.553 131.634C209.65 132.603 208.644 133.541 207.535 134.449C206.457 135.351 205.358 136.127 204.237 136.776C203.147 137.421 202.098 137.831 201.089 138.006ZM209.082 157.712C207.601 157.97 206.492 157.756 205.756 157.073C205.025 156.42 204.55 155.463 204.33 154.202C204.133 153.067 204.116 151.755 204.279 150.265C204.416 148.812 204.66 147.324 205.012 145.801C205.365 144.278 205.746 142.831 206.157 141.461C206.6 140.084 206.999 138.927 207.356 137.988C208.456 135.165 209.598 132.579 210.781 130.23C211.963 127.88 213.127 125.794 214.271 123.971C214.149 123.83 214.075 123.68 214.047 123.523C214.003 123.27 214.075 123.03 214.263 122.803C214.477 122.538 214.747 122.41 215.073 122.418C215.105 122.413 215.123 122.426 215.129 122.457C215.16 122.452 215.192 122.446 215.223 122.441C216.124 121.083 216.938 119.885 217.667 118.849C218.428 117.807 219.087 116.929 219.645 116.215C220.605 115.008 221.456 114.113 222.199 113.529C222.936 112.914 223.557 112.562 224.061 112.474C224.597 112.381 224.996 112.523 225.256 112.9C225.384 113.073 225.466 113.269 225.505 113.49C225.576 113.9 225.513 114.284 225.316 114.643C225.15 114.997 225.043 115.129 224.995 115.04C224.84 114.71 224.574 114.578 224.195 114.644C223.628 114.742 222.926 115.189 222.09 115.984C221.254 116.779 220.5 117.674 219.828 118.668C219.521 119.143 219.147 119.696 218.704 120.325C218.287 120.917 217.834 121.581 217.345 122.315C218.307 122.245 219.314 122.151 220.365 122.033C221.443 121.878 222.502 121.71 223.542 121.529C224.393 121.381 225.226 121.22 226.04 121.046C226.886 120.866 227.663 120.666 228.372 120.445L228.466 120.429C228.529 120.418 228.566 120.444 228.577 120.507C228.61 120.696 228.506 120.844 228.265 120.951C227.293 121.153 226.196 121.474 224.973 121.914C223.75 122.354 222.509 122.781 221.25 123.195C219.99 123.609 218.78 123.933 217.619 124.168C218.383 124.457 219.009 125.063 219.494 125.985C219.974 126.876 220.326 127.968 220.551 129.261C220.814 130.774 220.9 132.48 220.808 134.38C220.754 136.306 220.531 138.294 220.141 140.343C219.782 142.387 219.267 144.376 218.597 146.312C217.932 148.279 217.125 150.076 216.173 151.703C215.254 153.325 214.187 154.663 212.974 155.719C211.798 156.801 210.501 157.465 209.082 157.712ZM209.376 156.881C210.511 156.684 211.569 156.045 212.551 154.965C213.532 153.884 214.411 152.497 215.188 150.803C216.002 149.135 216.689 147.294 217.248 145.28C217.844 143.292 218.301 141.248 218.617 139.146C218.97 137.071 219.18 135.102 219.246 133.239C219.306 131.345 219.215 129.704 218.974 128.317C218.771 127.151 218.446 126.216 217.999 125.515C217.584 124.807 217.047 124.43 216.389 124.382C216.326 124.393 216.263 124.404 216.2 124.415C216.163 124.389 216.113 124.381 216.05 124.392C214.879 126.252 213.638 128.45 212.325 130.984C211.038 133.482 209.793 136.313 208.589 139.478C208.27 140.443 207.913 141.561 207.516 142.832C207.152 144.097 206.83 145.42 206.55 146.8C206.271 148.181 206.078 149.497 205.971 150.75C205.838 152.04 205.857 153.174 206.027 154.151C206.197 155.128 206.536 155.865 207.045 156.361C207.559 156.889 208.336 157.062 209.376 156.881ZM225.338 154.883C223.856 155.141 222.747 154.928 222.011 154.244C221.281 153.592 220.806 152.635 220.586 151.374C220.389 150.239 220.372 148.926 220.534 147.436C220.671 145.983 220.916 144.496 221.268 142.973C221.62 141.45 222.002 140.003 222.413 138.632C222.856 137.256 223.255 136.098 223.611 135.159C224.712 132.337 225.854 129.751 227.036 127.401C228.219 125.052 229.383 122.965 230.527 121.142C230.405 121.001 230.33 120.852 230.303 120.694C230.259 120.442 230.331 120.202 230.519 119.974C230.732 119.71 231.003 119.582 231.329 119.59C231.36 119.584 231.379 119.597 231.384 119.629C231.416 119.623 231.447 119.618 231.479 119.613C232.379 118.254 233.194 117.057 233.923 116.02C234.684 114.979 235.343 114.1 235.901 113.386C236.86 112.18 237.712 111.285 238.454 110.701C239.192 110.085 239.813 109.734 240.317 109.646C240.853 109.553 241.251 109.694 241.512 110.071C241.639 110.244 241.722 110.441 241.761 110.661C241.832 111.071 241.769 111.456 241.572 111.815C241.406 112.169 241.299 112.301 241.251 112.212C241.096 111.881 240.829 111.749 240.451 111.815C239.884 111.914 239.182 112.361 238.346 113.156C237.51 113.951 236.756 114.845 236.084 115.839C235.777 116.315 235.402 116.867 234.96 117.497C234.543 118.089 234.09 118.752 233.601 119.487C234.563 119.417 235.57 119.323 236.621 119.205C237.698 119.05 238.757 118.882 239.798 118.701C240.649 118.553 241.482 118.392 242.296 118.218C243.142 118.038 243.919 117.838 244.627 117.617L244.722 117.601C244.785 117.59 244.822 117.616 244.833 117.679C244.866 117.868 244.762 118.016 244.521 118.123C243.549 118.324 242.451 118.645 241.229 119.085C240.006 119.525 238.765 119.953 237.505 120.367C236.246 120.781 235.035 121.105 233.874 121.339C234.639 121.629 235.264 122.234 235.75 123.157C236.229 124.048 236.582 125.14 236.807 126.432C237.07 127.945 237.156 129.652 237.064 131.552C237.01 133.478 236.787 135.465 236.396 137.515C236.037 139.558 235.523 141.548 234.853 143.483C234.188 145.451 233.38 147.248 232.429 148.875C231.509 150.496 230.443 151.835 229.23 152.891C228.054 153.972 226.757 154.636 225.338 154.883ZM225.632 154.053C226.767 153.855 227.825 153.216 228.807 152.136C229.788 151.056 230.667 149.669 231.444 147.974C232.258 146.306 232.945 144.465 233.504 142.451C234.1 140.464 234.556 138.419 234.873 136.318C235.226 134.243 235.436 132.274 235.501 130.411C235.562 128.516 235.471 126.876 235.23 125.489C235.027 124.322 234.702 123.388 234.255 122.686C233.839 121.979 233.303 121.601 232.645 121.553C232.582 121.564 232.519 121.575 232.456 121.586C232.419 121.56 232.369 121.553 232.306 121.564C231.135 123.424 229.893 125.621 228.58 128.156C227.294 130.653 226.048 133.485 224.845 136.65C224.526 137.615 224.168 138.733 223.772 140.003C223.408 141.269 223.086 142.591 222.806 143.972C222.527 145.352 222.334 146.669 222.227 147.922C222.094 149.211 222.112 150.345 222.282 151.322C222.453 152.3 222.792 153.036 223.3 153.533C223.815 154.06 224.592 154.234 225.632 154.053ZM252.089 112.129C251.522 112.227 251.183 111.962 251.073 111.331C251.029 111.079 251.049 110.816 251.131 110.541C251.181 110.273 251.461 110.013 251.97 109.762C252.473 109.48 253.018 109.255 253.606 109.088C254.22 108.883 254.701 108.751 255.047 108.691C255.331 108.641 255.476 108.632 255.481 108.664C255.492 108.727 255.351 108.849 255.058 109.03C254.764 109.211 254.461 109.426 254.147 109.676C253.833 109.925 253.635 110.187 253.553 110.461C253.467 110.898 253.272 111.273 252.969 111.586C252.698 111.893 252.404 112.074 252.089 112.129ZM246.897 129.89C246.014 130.043 245.214 130.02 244.497 129.82C243.775 129.588 243.337 129.031 243.183 128.148C243.019 127.203 243.093 126.231 243.407 125.235C243.721 124.238 244.143 123.304 244.674 122.432C245.198 121.529 245.727 120.739 246.259 120.062C246.816 119.347 247.228 118.821 247.494 118.482C247.199 118.469 247.197 118.177 247.488 117.607C247.778 117.036 248.259 116.53 248.929 116.089C249.107 115.993 249.275 115.931 249.433 115.904C249.78 115.844 250.14 115.862 250.514 115.959C250.92 116.051 251.148 116.239 251.197 116.523C251.224 116.68 251.189 116.849 251.09 117.028C250.991 117.208 250.887 117.356 250.778 117.473C250.558 117.706 250.222 118.105 249.768 118.671C249.315 119.238 248.825 119.875 248.298 120.584C247.772 121.292 247.277 121.996 246.814 122.693C246.377 123.354 246.033 123.901 245.784 124.334C244.875 126.019 244.492 127.271 244.635 128.091C244.789 128.974 245.575 129.291 246.993 129.045C248.16 128.842 249.265 128.471 250.308 127.932C251.377 127.356 252.356 126.731 253.246 126.057C254.653 125 255.923 123.804 257.055 122.47C258.182 121.105 259.356 119.732 260.577 118.35C260.635 118.307 260.711 118.278 260.805 118.261C260.9 118.245 260.955 118.284 260.972 118.378C260.988 118.473 260.947 118.61 260.849 118.79C260.703 119.075 260.383 119.569 259.888 120.272C259.388 120.944 258.744 121.722 257.956 122.606C257.199 123.485 256.332 124.383 255.355 125.3C254.404 126.18 253.405 126.971 252.358 127.673C251.802 128.029 250.998 128.445 249.944 128.921C248.921 129.391 247.906 129.714 246.897 129.89ZM258.272 129.031C257.925 129.091 257.719 128.932 257.653 128.554C257.577 128.113 257.687 127.444 257.986 126.547C258.285 125.651 258.644 124.728 259.063 123.778C259.483 122.828 259.835 122.052 260.12 121.45C260.312 121.059 260.576 120.526 260.914 119.85C261.251 119.174 261.595 118.449 261.948 117.673C262.294 116.865 262.565 116.087 262.76 115.339C262.986 114.585 263.052 113.94 262.959 113.404C262.866 112.868 262.624 112.504 262.233 112.313C261.874 112.115 261.67 111.875 261.62 111.591C261.598 111.465 261.65 111.391 261.776 111.369C261.934 111.341 262.137 111.387 262.385 111.507C262.628 111.594 262.894 111.726 263.185 111.903C263.475 112.08 263.756 112.291 264.026 112.536C264.253 112.724 264.486 112.944 264.725 113.194C264.964 113.445 265.116 113.76 265.182 114.138C265.264 114.611 265.181 115.161 264.933 115.789C264.535 116.865 264.03 117.879 263.416 118.83C262.802 119.782 262.18 120.783 261.551 121.834C260.87 122.96 260.257 124.008 259.711 124.98C259.192 125.915 258.872 126.507 258.753 126.755C259.055 126.248 259.56 125.51 260.268 124.542C261.003 123.538 261.834 122.435 262.762 121.234C263.69 120.033 264.626 118.879 265.57 117.773C266.546 116.661 267.41 115.748 268.163 115.032C268.471 114.751 268.877 114.47 269.38 114.187C269.878 113.873 270.379 113.672 270.883 113.585C271.324 113.508 271.712 113.587 272.045 113.821C272.404 114.018 272.644 114.464 272.764 115.157C272.869 115.756 272.863 116.472 272.748 117.304C272.665 118.13 272.539 118.899 272.37 119.611C272.237 120.154 272.152 120.688 272.113 121.215C272.069 121.709 272.083 122.162 272.154 122.572C272.259 123.171 272.499 123.616 272.874 123.908C273.281 124.194 273.832 124.277 274.525 124.157C275.219 124.036 276.069 123.693 277.075 123.128C278.636 122.207 280.156 121.049 281.635 119.655C283.114 118.261 284.432 116.879 285.59 115.508C285.888 115.164 286.162 114.872 286.413 114.634C286.664 114.395 286.919 114.091 287.18 113.721C287.237 113.678 287.298 113.652 287.361 113.641C287.455 113.624 287.511 113.663 287.527 113.758C287.544 113.853 287.518 113.987 287.451 114.161C287.306 114.446 286.931 114.998 286.327 115.818C285.717 116.606 284.95 117.519 284.026 118.557C283.097 119.563 282.07 120.57 280.946 121.578C279.848 122.548 278.707 123.364 277.523 124.025C276.983 124.281 276.406 124.512 275.792 124.716C275.215 124.946 274.643 125.111 274.075 125.209C273.129 125.374 272.274 125.312 271.509 125.023C270.744 124.733 270.274 124.084 270.098 123.076C269.989 122.445 270.017 121.677 270.185 120.771C270.301 120.133 270.433 119.493 270.581 118.85C270.755 118.17 270.835 117.507 270.82 116.86C270.829 116.728 270.826 116.615 270.809 116.521C270.787 116.395 270.768 116.284 270.752 116.19C270.62 115.433 270.286 115.101 269.75 115.195C269.403 115.255 269.003 115.471 268.548 115.842C268.118 116.177 267.737 116.503 267.402 116.821C267.094 117.102 266.606 117.658 265.939 118.489C265.297 119.282 264.606 120.166 263.866 121.139C263.126 122.112 262.428 123.046 261.771 123.94C261.219 124.685 260.704 125.457 260.225 126.255C259.741 127.021 259.333 127.661 259 128.173C258.672 128.718 258.43 129.004 258.272 129.031ZM286.179 124.711C285.989 124.744 285.798 124.761 285.603 124.763C285.414 124.796 285.238 124.81 285.074 124.806C284.685 124.809 284.332 124.74 284.016 124.6C283.73 124.455 283.558 124.209 283.497 123.862C283.464 123.673 283.456 123.529 283.471 123.428C283.582 122.76 283.968 121.994 284.63 121.132C285.287 120.238 286.109 119.364 287.097 118.51C288.08 117.624 289.056 116.886 290.025 116.295C289.1 115.644 288.356 115.01 287.794 114.394C287.226 113.745 286.882 113.074 286.761 112.381C286.602 111.467 286.874 110.51 287.578 109.51C288.312 108.506 289.564 107.395 291.334 106.177C292.177 105.608 292.947 105.182 293.645 104.898C294.374 104.609 295.022 104.415 295.59 104.316C296.315 104.19 296.914 104.183 297.389 104.295C297.863 104.408 298.214 104.558 298.442 104.746C299.013 105.231 299.346 105.741 299.439 106.277C299.549 106.908 299.392 107.503 298.97 108.064C298.548 108.625 298.068 109.131 297.529 109.582C297.022 110.027 296.648 110.401 296.409 110.702C296.304 110.85 296.173 110.938 296.016 110.965C295.89 110.987 295.787 110.957 295.707 110.873C295.659 110.784 295.693 110.697 295.808 110.612C296.122 110.362 296.474 109.96 296.865 109.405C297.282 108.813 297.627 108.184 297.901 107.519C298.175 106.854 298.276 106.317 298.205 105.907C298.167 105.687 298.074 105.524 297.925 105.42C297.629 105.212 297.166 105.162 296.536 105.272C295.842 105.393 295.037 105.712 294.12 106.228C293.197 106.714 292.326 107.304 291.505 107.999C290.684 108.694 290.018 109.443 289.508 110.246C289.024 111.013 288.84 111.727 288.955 112.389C289.065 113.019 289.387 113.564 289.922 114.023C290.456 114.483 290.986 114.91 291.509 115.306C292.321 114.743 293.319 114.228 294.505 113.762C295.685 113.264 296.939 112.819 298.267 112.425C299.596 112.032 300.869 111.696 302.088 111.419C303.332 111.105 304.427 110.866 305.373 110.701C305.909 110.608 306.366 110.529 306.745 110.463C307.123 110.397 307.428 110.376 307.659 110.401C307.828 110.437 307.918 110.486 307.929 110.549C307.956 110.707 307.875 110.802 307.686 110.835C307.466 110.873 307.226 110.899 306.969 110.911C306.742 110.918 306.456 110.952 306.109 111.012C305.069 111.193 303.837 111.488 302.414 111.898C300.986 112.277 299.553 112.721 298.115 113.231C296.672 113.71 295.408 114.189 294.322 114.671C293.268 115.146 292.576 115.559 292.247 115.909C293.004 116.524 293.459 117.273 293.613 118.156C293.723 118.786 293.656 119.431 293.414 120.091C293.203 120.744 292.783 121.321 292.155 121.82C291.314 122.583 290.334 123.209 289.217 123.695C288.106 124.214 287.093 124.552 286.179 124.711ZM285.998 123.671C286.407 123.6 287.045 123.342 287.91 122.9C288.806 122.451 289.604 121.906 290.305 121.265C291.345 120.337 291.78 119.384 291.61 118.407C291.49 117.713 291.056 117.09 290.311 116.538C289.834 116.783 289.274 117.206 288.631 117.805C288.02 118.398 287.419 119.055 286.83 119.775C286.272 120.489 285.806 121.171 285.432 121.82C285.084 122.433 284.94 122.913 285 123.26C285.066 123.638 285.399 123.775 285.998 123.671Z" fill="#bd13c0"/>
<path d="M50.0163 101.134C45.5363 101.134 40.9603 100.654 36.2883 99.6943C31.6803 98.7983 27.2643 97.4223 23.0403 95.5663C18.8803 93.7743 15.1363 91.5023 11.8083 88.7503C8.54431 86.0623 5.95231 82.9583 4.03231 79.4383C2.11231 75.8543 1.15231 71.8863 1.15231 67.5343C1.15231 64.5903 1.66431 61.7103 2.68831 58.8943C3.77631 56.0783 5.34431 53.5503 7.39231 51.3103C9.44031 49.0063 11.9363 47.1823 14.8803 45.8383C17.8243 44.4943 21.2163 43.8223 25.0563 43.8223L26.4003 44.8783C21.5363 44.8783 17.5363 45.8383 14.4003 47.7583C11.3283 49.6783 9.05631 52.2383 7.58431 55.4383C6.11231 58.5743 5.37631 61.9663 5.37631 65.6143C5.37631 69.9023 6.30431 73.8063 8.16031 77.3263C10.0163 80.8463 12.5443 83.9823 15.7443 86.7343C18.9443 89.4223 22.5603 91.6943 26.5923 93.5503C30.6243 95.4063 34.8163 96.8143 39.1683 97.7743C43.5203 98.7343 47.7443 99.2143 51.8403 99.2143C56.8963 99.2143 61.5363 98.5743 65.7603 97.2943C69.9843 96.0783 73.3763 94.2223 75.9363 91.7263C78.4963 89.2303 79.7763 86.0943 79.7763 82.3183C79.7763 79.8223 79.1683 77.5183 77.9523 75.4063C76.8003 73.2943 75.2963 71.3103 73.4403 69.4543C71.6483 67.5343 69.6963 65.6783 67.5843 63.8863C65.5363 62.0303 63.5843 60.1743 61.7283 58.3183C59.9363 56.3983 58.4323 54.3503 57.2163 52.1743C56.0643 49.9983 55.4883 47.5983 55.4883 44.9743C55.4883 41.8383 56.3203 39.1183 57.9843 36.8143C59.7123 34.5103 62.0163 32.5903 64.8963 31.0543C67.7763 29.5183 70.9763 28.3983 74.4963 27.6943C78.0163 26.9263 81.6003 26.5423 85.2483 26.5423C89.3443 26.5423 92.2563 27.1183 93.9843 28.2703C95.7123 29.3583 96.5763 30.8943 96.5763 32.8783C96.5763 34.3503 96.0963 35.8863 95.1363 37.4863C94.1763 39.0863 92.8643 40.5583 91.2003 41.9023C89.5363 43.1823 87.6163 44.1423 85.4403 44.7823C84.8003 44.9743 84.3203 45.0703 84.0003 45.0703C83.7443 45.0703 83.6163 45.0383 83.6163 44.9743C83.5523 44.7183 84.2243 44.2063 85.6323 43.4383C88.4483 41.7743 90.3363 40.0463 91.2963 38.2543C92.2563 36.3983 92.7363 34.8303 92.7363 33.5503C92.7363 29.9663 89.5363 28.1743 83.1363 28.1743C80.3203 28.1743 77.5363 28.5263 74.7843 29.2303C72.0323 29.8703 69.5363 30.8623 67.2963 32.2063C65.0563 33.5503 63.2643 35.2463 61.9203 37.2943C60.5763 39.3423 59.9043 41.7103 59.9043 44.3983C59.9043 46.7663 60.5123 48.9743 61.7283 51.0223C62.9443 53.0063 64.4803 54.9263 66.3363 56.7823C68.2563 58.5743 70.2723 60.3663 72.3843 62.1583C74.5603 63.8863 76.5763 65.6783 78.4323 67.5343C80.3523 69.3903 81.9203 71.4063 83.1363 73.5823C84.3523 75.6943 84.9603 78.0303 84.9603 80.5903C84.9603 84.8783 83.3923 88.5583 80.2563 91.6303C77.1203 94.7023 72.8963 97.0383 67.5843 98.6383C62.3363 100.302 56.4803 101.134 50.0163 101.134ZM124.703 88.1743C122.015 88.1743 120.159 87.5663 119.135 86.3503C118.111 85.1343 117.599 83.6303 117.599 81.8383C117.599 80.4303 117.823 78.9583 118.271 77.4223C118.719 75.8223 119.199 74.3183 119.711 72.9103C118.815 73.8703 117.599 75.1503 116.063 76.7503C114.527 78.3503 112.831 79.9823 110.975 81.6463C109.119 83.2463 107.199 84.6223 105.215 85.7743C103.295 86.8623 101.503 87.4063 99.8388 87.4063C99.0068 87.4063 98.2068 87.2143 97.4388 86.8303C96.6708 86.4463 95.9988 85.8383 95.4228 85.0063C94.5908 83.7903 94.1748 82.4783 94.1748 81.0703C94.1748 79.0223 94.8148 77.0063 96.0948 75.0223C97.4388 73.0383 98.6548 71.2463 99.7428 69.6463C101.151 67.5983 102.367 65.9983 103.391 64.8463C104.415 63.6303 104.927 62.6383 104.927 61.8703C104.927 61.4223 104.703 61.0063 104.255 60.6223C103.871 60.3023 103.679 59.9823 103.679 59.6623C103.679 59.0223 104.063 58.8943 104.831 59.2783C105.855 59.7263 106.719 60.4303 107.423 61.3903C108.127 62.3503 108.479 63.3743 108.479 64.4623C108.479 65.2943 108.255 66.0623 107.807 66.7663C107.231 67.7903 106.495 68.7183 105.599 69.5503C104.767 70.3823 103.775 71.5343 102.623 73.0063C102.111 73.6463 101.375 74.6703 100.415 76.0783C99.5188 77.4223 98.7188 78.8623 98.0148 80.3983C97.3108 81.8703 96.9588 83.1503 96.9588 84.2383C96.9588 85.5183 97.6308 86.1583 98.9748 86.1583C99.9988 86.1583 101.215 85.8063 102.623 85.1023C104.031 84.3343 105.375 83.5023 106.655 82.6063C107.999 81.7103 108.959 81.0063 109.535 80.4943C111.583 78.7663 113.727 76.7823 115.967 74.5423C118.271 72.3023 120.319 70.0623 122.111 67.8223C122.751 66.9903 123.423 66.5743 124.127 66.5743C124.767 66.5743 125.279 66.8303 125.663 67.3423C126.111 67.8543 126.335 68.4623 126.335 69.1663C126.335 69.7423 126.175 70.2863 125.855 70.7983C124.767 72.5903 123.711 74.5423 122.687 76.6543C121.727 78.7663 121.247 80.9423 121.247 83.1823C121.247 84.3343 121.503 85.2623 122.015 85.9663C122.527 86.6703 123.391 87.0223 124.607 87.0223C125.567 87.0223 126.847 86.7343 128.447 86.1583C131.839 84.9423 134.975 82.7343 137.855 79.5343C140.735 76.2703 142.943 72.3023 144.479 67.6303C145.119 65.7103 145.439 63.9183 145.439 62.2543C145.439 60.0143 144.927 58.3503 143.903 57.2623C142.943 56.1103 142.015 55.5023 141.119 55.4383C140.863 55.4383 140.223 55.5663 139.199 55.8223C138.239 56.0143 137.183 56.6543 136.031 57.7423C135.839 57.9343 135.647 58.0303 135.455 58.0303C135.135 58.0303 134.975 57.8383 134.975 57.4543C134.975 57.0063 135.327 56.4623 136.031 55.8223C136.479 55.4383 136.991 55.0863 137.567 54.7663C138.143 54.3823 138.623 54.0943 139.007 53.9023C140.159 53.4543 141.215 53.2303 142.175 53.2303C144.223 53.2303 145.919 54.0303 147.263 55.6303C148.607 57.1663 149.279 59.2463 149.279 61.8703C149.279 62.8303 149.183 63.8543 148.991 64.9423C148.799 65.9663 148.447 67.0543 147.935 68.2063C147.039 70.3823 145.759 72.6543 144.095 75.0223C142.495 77.3263 140.639 79.4703 138.527 81.4543C136.415 83.4383 134.175 85.0703 131.807 86.3503C129.439 87.5663 127.071 88.1743 124.703 88.1743ZM169.142 88.1743C167.67 88.1743 166.262 88.0143 164.918 87.6943C163.638 87.3743 162.454 86.8943 161.366 86.2543C159.958 85.3583 158.902 84.3343 158.198 83.1823C157.558 81.9663 157.238 80.6863 157.238 79.3423C157.238 77.1023 158.006 74.7663 159.542 72.3343C161.078 69.9023 163.094 67.5983 165.59 65.4223C168.15 63.1823 170.838 61.3263 173.654 59.8543C175.318 58.9583 176.982 58.3183 178.646 57.9343C180.31 57.5503 181.782 57.3583 183.062 57.3583C185.174 57.3583 186.55 57.7743 187.19 58.6063C187.894 59.3743 188.246 60.2703 188.246 61.2943C188.246 62.5103 187.862 63.6623 187.094 64.7503C186.39 65.8383 185.334 66.9263 183.926 68.0143C181.43 69.9983 178.038 71.7903 173.75 73.3903C169.526 74.9903 165.142 76.1103 160.598 76.7503C160.278 77.3903 159.99 78.0303 159.734 78.6703C159.542 79.3103 159.446 79.9503 159.446 80.5903C159.446 81.9983 159.894 83.1503 160.79 84.0463C161.75 84.8783 162.934 85.4863 164.342 85.8703C165.814 86.1903 167.318 86.3503 168.854 86.3503C169.622 86.3503 170.39 86.3183 171.158 86.2543C171.926 86.1903 172.63 86.0943 173.27 85.9663C176.598 85.2623 179.958 84.0463 183.35 82.3183C186.806 80.5903 190.134 78.6063 193.334 76.3663C196.534 74.1263 199.414 71.8863 201.974 69.6463C202.102 69.5823 202.262 69.5503 202.454 69.5503C202.71 69.5503 202.838 69.6143 202.838 69.7423C202.838 69.9343 202.71 70.1903 202.454 70.5103C202.006 71.2783 201.078 72.2703 199.67 73.4863C198.326 74.7023 196.758 75.9503 194.966 77.2303C193.238 78.5103 191.542 79.7263 189.878 80.8783C188.214 81.9663 186.838 82.8303 185.75 83.4703C183.382 84.8143 180.726 85.9343 177.782 86.8303C174.838 87.7263 171.958 88.1743 169.142 88.1743ZM161.462 75.1183C162.934 74.7983 164.694 74.3823 166.742 73.8703C168.79 73.2943 170.902 72.6223 173.078 71.8543C175.318 71.0223 177.366 70.1263 179.222 69.1663C181.078 68.1423 182.518 67.0543 183.542 65.9023C184.566 64.8143 185.078 63.6943 185.078 62.5423C185.078 62.0303 184.886 61.6143 184.502 61.2943C184.118 60.9103 183.35 60.7183 182.198 60.7183C180.854 60.7183 179.254 61.1343 177.398 61.9663C175.542 62.7983 173.59 63.9183 171.542 65.3263C169.558 66.7343 167.67 68.3023 165.878 70.0303C164.086 71.6943 162.614 73.3903 161.462 75.1183ZM209.736 88.1743C208.264 88.1743 206.856 88.0143 205.512 87.6943C204.232 87.3743 203.048 86.8943 201.96 86.2543C200.552 85.3583 199.496 84.3343 198.792 83.1823C198.152 81.9663 197.832 80.6863 197.832 79.3423C197.832 77.1023 198.6 74.7663 200.136 72.3343C201.672 69.9023 203.688 67.5983 206.184 65.4223C208.744 63.1823 211.432 61.3263 214.248 59.8543C215.912 58.9583 217.576 58.3183 219.24 57.9343C220.904 57.5503 222.376 57.3583 223.656 57.3583C225.768 57.3583 227.144 57.7743 227.784 58.6063C228.488 59.3743 228.84 60.2703 228.84 61.2943C228.84 62.5103 228.456 63.6623 227.688 64.7503C226.984 65.8383 225.928 66.9263 224.52 68.0143C222.024 69.9983 218.632 71.7903 214.344 73.3903C210.12 74.9903 205.736 76.1103 201.192 76.7503C200.872 77.3903 200.584 78.0303 200.328 78.6703C200.136 79.3103 200.04 79.9503 200.04 80.5903C200.04 81.9983 200.488 83.1503 201.384 84.0463C202.344 84.8783 203.528 85.4863 204.936 85.8703C206.408 86.1903 207.912 86.3503 209.448 86.3503C210.216 86.3503 210.984 86.3183 211.752 86.2543C212.52 86.1903 213.224 86.0943 213.864 85.9663C217.192 85.2623 220.552 84.0463 223.944 82.3183C227.4 80.5903 230.728 78.6063 233.928 76.3663C237.128 74.1263 240.008 71.8863 242.568 69.6463C242.696 69.5823 242.856 69.5503 243.048 69.5503C243.304 69.5503 243.432 69.6143 243.432 69.7423C243.432 69.9343 243.304 70.1903 243.048 70.5103C242.6 71.2783 241.672 72.2703 240.264 73.4863C238.92 74.7023 237.352 75.9503 235.56 77.2303C233.832 78.5103 232.136 79.7263 230.472 80.8783C228.808 81.9663 227.432 82.8303 226.344 83.4703C223.976 84.8143 221.32 85.9343 218.376 86.8303C215.432 87.7263 212.552 88.1743 209.736 88.1743ZM202.056 75.1183C203.528 74.7983 205.288 74.3823 207.336 73.8703C209.384 73.2943 211.496 72.6223 213.672 71.8543C215.912 71.0223 217.96 70.1263 219.816 69.1663C221.672 68.1423 223.112 67.0543 224.136 65.9023C225.16 64.8143 225.672 63.6943 225.672 62.5423C225.672 62.0303 225.48 61.6143 225.096 61.2943C224.712 60.9103 223.944 60.7183 222.792 60.7183C221.448 60.7183 219.848 61.1343 217.992 61.9663C216.136 62.7983 214.184 63.9183 212.136 65.3263C210.152 66.7343 208.264 68.3023 206.472 70.0303C204.68 71.6943 203.208 73.3903 202.056 75.1183ZM243.801 89.1343C241.625 89.1343 239.705 88.7183 238.041 87.8863C236.441 87.0543 235.641 85.4543 235.641 83.0863C235.641 81.3583 236.313 79.3423 237.657 77.0383C239.001 74.7343 240.793 72.3023 243.033 69.7423C245.273 67.1823 247.673 64.6223 250.233 62.0623C252.857 59.5023 255.417 57.0703 257.913 54.7663C257.145 54.6383 256.409 54.4783 255.705 54.2863C255.001 54.0943 254.329 53.9343 253.689 53.8063C250.745 53.1023 247.257 52.2703 243.225 51.3103C239.257 50.2863 234.969 49.2943 230.361 48.3343C225.753 47.3103 221.049 46.4783 216.249 45.8383C211.385 45.1343 206.649 44.7823 202.041 44.7823C196.025 44.7823 190.521 45.5823 185.529 47.1823C180.537 48.7183 176.729 51.5343 174.105 55.6303C173.785 56.2063 173.433 56.4943 173.049 56.4943C172.793 56.4943 172.665 56.2383 172.665 55.7263C172.665 55.1503 172.857 54.5743 173.241 53.9983C175.289 50.9903 177.849 48.6223 180.921 46.8943C183.993 45.1663 187.417 43.9503 191.193 43.2463C194.969 42.4783 198.905 42.0943 203.001 42.0943C207.161 42.0943 211.385 42.3823 215.673 42.9583C219.897 43.5343 223.961 44.2383 227.865 45.0703C231.833 45.9023 235.449 46.7663 238.713 47.6623C242.041 48.4943 244.857 49.1983 247.161 49.7743C248.697 50.2223 250.585 50.7023 252.825 51.2143C255.129 51.7263 257.561 52.2383 260.121 52.7503L266.361 47.2783C266.169 47.0863 266.073 46.8303 266.073 46.5103C266.073 45.8703 266.457 45.1663 267.225 44.3983C267.993 43.6303 268.985 42.9903 270.201 42.4783C270.649 42.2863 271.289 42.2863 272.121 42.4783C273.017 42.6703 273.849 42.9583 274.617 43.3423C275.385 43.7263 275.769 44.1423 275.769 44.5903C275.769 44.9743 275.321 45.4863 274.425 46.1263C273.593 46.7023 273.017 47.0863 272.697 47.2783C271.929 47.7263 270.841 48.4943 269.433 49.5823C268.025 50.6703 266.393 51.9503 264.537 53.4223C266.905 53.8063 269.305 54.1263 271.737 54.3823C274.233 54.5743 276.601 54.6703 278.841 54.6703C282.233 54.6703 285.305 54.3503 288.057 53.7103C290.809 53.0063 292.921 51.8543 294.393 50.2543C295.929 48.5903 296.505 46.3183 296.121 43.4383V43.3423C296.121 43.0223 296.281 42.8623 296.601 42.8623C296.921 42.8623 297.145 43.0223 297.273 43.3423C297.337 43.7263 297.369 44.1103 297.369 44.4943C297.433 44.8783 297.465 45.2303 297.465 45.5503C297.465 48.5583 296.601 50.9583 294.873 52.7503C293.145 54.4783 290.873 55.6943 288.057 56.3983C285.241 57.1023 282.137 57.4543 278.745 57.4543C275.993 57.4543 273.145 57.2623 270.201 56.8783C267.321 56.4943 264.569 56.0783 261.945 55.6303C259.385 57.8063 256.761 60.1743 254.073 62.7343C251.385 65.2303 248.889 67.7583 246.585 70.3183C244.281 72.8143 242.393 75.1503 240.921 77.3263C239.513 79.5023 238.809 81.2943 238.809 82.7023C238.809 84.1103 239.417 85.1663 240.633 85.8703C241.849 86.5743 243.449 86.9263 245.433 86.9263C248.569 86.9263 252.153 86.1903 256.185 84.7183C256.633 84.5903 257.049 84.4303 257.433 84.2383C257.881 84.0463 258.329 83.8543 258.777 83.6623C261.785 82.3183 264.729 80.6543 267.609 78.6703C270.553 76.6223 273.209 74.6063 275.577 72.6223C276.281 72.0463 276.921 71.5663 277.497 71.1823C278.073 70.7983 278.681 70.2863 279.321 69.6463C279.449 69.5823 279.577 69.5503 279.705 69.5503C279.897 69.5503 279.993 69.6463 279.993 69.8383C279.993 70.0303 279.897 70.2863 279.705 70.6063C279.321 71.1183 278.393 72.0783 276.921 73.4863C275.449 74.8303 273.625 76.3663 271.449 78.0943C269.273 79.7583 266.905 81.3903 264.345 82.9903C261.849 84.5263 259.321 85.7423 256.761 86.6383C255.481 87.0863 253.593 87.5983 251.097 88.1743C248.665 88.8143 246.233 89.1343 243.801 89.1343Z" fill="#bd13c0"/>
</svg>
